<svg width="46" height="44" viewBox="0 0 46 44" fill="none" xmlns="http://www.w3.org/2000/svg">
<rect x="0.905605" y="0.905605" width="43.469" height="41.9597" rx="20.9798" stroke="#FCC436" stroke-width="1.81121"/>
<path d="M32.2922 19.0785V29.9081C32.2922 30.63 32.028 31.2464 31.4995 31.7573C30.9711 32.2681 30.3334 32.5235 29.5866 32.5235H16.0584C15.3116 32.5235 14.6739 32.2681 14.1455 31.7573C13.617 31.2464 13.3528 30.63 13.3528 29.9081V19.0785C12.9442 18.8469 12.6165 18.5336 12.3699 18.1386C12.1233 17.7436 12 17.3077 12 16.8309C12 15.8773 12.4826 15.0021 13.4479 14.2052C14.4132 13.4083 15.7273 12.7749 17.3901 12.3049C19.0529 11.835 20.8637 11.6 22.8225 11.6C24.7813 11.6 26.5921 11.835 28.2549 12.3049C29.9177 12.7749 31.2318 13.4083 32.1971 14.2052C33.1624 15.0021 33.645 15.8773 33.645 16.8309C33.645 17.3077 33.5217 17.7436 33.2751 18.1386C33.0285 18.5336 32.7008 18.8469 32.2922 19.0785Z" fill="#FCC436"/>
<path d="M22.4559 22.3164C22.4906 22.1577 22.5884 21.9992 22.7052 21.8936C22.7619 21.8423 22.8092 21.8162 22.8369 21.8055L22.8421 21.8036C23.1553 21.8525 23.4561 21.6554 23.5223 21.3521C23.5905 21.0397 23.3838 20.7329 23.0606 20.667C22.5799 20.5689 22.1524 20.81 21.888 21.0491C21.6049 21.3051 21.3744 21.6706 21.2855 22.0776C21.2172 22.39 21.424 22.6967 21.7472 22.7627C22.0704 22.8286 22.3877 22.6288 22.4559 22.3164Z" fill="white"/>
<path d="M17.4655 19.5525C15.3276 21.1988 15.2724 23.9883 16.2743 25.8676C16.9476 27.1306 18.2425 28.2546 20.1848 28.2546C20.6667 28.2546 21.0143 28.2419 21.288 28.2318C22.1172 28.2013 22.2677 28.1959 23.422 28.6462C24.9573 29.2452 26.5899 29.0674 27.9541 28.2358C29.1818 27.4874 29.8864 25.7496 29.767 24.3393C29.7036 23.5918 29.7729 23.2869 29.852 22.9389C29.9221 22.6305 30 22.2881 30 21.5733C30 20.0523 29.5338 19.0826 29.0677 18.2895C28.6016 17.4964 28.095 16.7107 26.6593 15.8266C25.48 15.1005 23.2463 14.7526 21.4797 15.7003C20.1848 16.395 19.5374 17.0265 18.7604 18.2895C18.4663 18.7676 18.1842 18.9991 17.4655 19.5525ZM27.129 22.4087C27.129 24.5162 25.3616 26.2247 23.1814 26.2247C21.0012 26.2247 19.2338 24.5162 19.2338 22.4087C19.2338 20.3011 21.0012 18.5926 23.1814 18.5926C25.3616 18.5926 27.129 20.3011 27.129 22.4087Z" fill="white"/>
</svg>
