<svg width="36" height="27" viewBox="0 0 36 27" fill="none" xmlns="http://www.w3.org/2000/svg">
<path d="M35.308 6.8724C35.308 3.59013 32.4801 0.156081 32.4801 1.18604C32.4801 2.21599 33.0032 15.8947 33.0032 15.8947L32.4801 24.8396C32.4801 25.4497 32.9746 25.9442 33.5847 25.9442C34.1947 25.9442 34.6892 25.4497 34.6892 24.8396L34.3971 15.8433C34.3971 15.8433 35.308 10.1547 35.308 6.8724Z" stroke="#FCC436" stroke-width="0.820339" stroke-miterlimit="10"/>
<mask id="path-2-inside-1_10612_15" fill="white">
<path d="M35.308 6.8724C35.308 3.59013 32.4801 0.156081 32.4801 1.18604C32.4801 2.21599 33.0032 15.8947 33.0032 15.8947L32.4801 24.8396C32.4801 25.4497 32.9746 25.9442 33.5847 25.9442C34.1947 25.9442 34.6892 25.4497 34.6892 24.8396L34.3971 15.8433C34.3971 15.8433 35.308 10.1547 35.308 6.8724Z"/>
</mask>
<path d="M33.0032 15.8947L37.0979 16.1341L37.1094 15.9361L37.1019 15.7379L33.0032 15.8947ZM32.4801 24.8396L28.3854 24.6002L28.3784 24.7198V24.8396H32.4801ZM34.6892 24.8396H38.7909V24.7731L38.7888 24.7065L34.6892 24.8396ZM34.3971 15.8433L30.347 15.1948L30.2848 15.5832L30.2976 15.9764L34.3971 15.8433ZM39.4097 6.8724C39.4097 4.18461 38.3085 1.74786 37.3799 0.250466C36.9243 -0.484185 36.314 -1.31326 35.5991 -1.92914C35.4047 -2.09656 35.1149 -2.32495 34.7428 -2.53299C34.4361 -2.70448 33.6998 -3.07797 32.6939 -3.10062C31.4168 -3.12936 29.9996 -2.56281 29.1143 -1.25381C28.4253 -0.235096 28.3784 0.779772 28.3784 1.18604H36.5818C36.5818 1.46355 36.557 2.38455 35.9094 3.34202C35.0655 4.58977 33.7091 5.1277 32.5093 5.10069C31.5808 5.07979 30.9383 4.73841 30.7393 4.62713C30.4749 4.47931 30.3067 4.33927 30.2449 4.28603C30.0602 4.12693 30.1568 4.1684 30.4082 4.5738C30.8936 5.3565 31.2063 6.27792 31.2063 6.8724H39.4097ZM28.3784 1.18604C28.3784 1.80083 28.5147 5.6036 28.6427 9.07764C28.7082 10.8535 28.7736 12.5969 28.8227 13.8961C28.8472 14.5457 28.8677 15.0845 28.882 15.4608C28.8891 15.649 28.8947 15.7966 28.8986 15.8971C28.9005 15.9474 28.902 15.986 28.903 16.0119C28.9035 16.0249 28.9038 16.0348 28.9041 16.0414C28.9042 16.0447 28.9043 16.0472 28.9044 16.0489C28.9044 16.0497 28.9044 16.0503 28.9044 16.0508C28.9045 16.051 28.9045 16.0511 28.9045 16.0512C28.9045 16.0514 28.9045 16.0514 33.0032 15.8947C37.1019 15.7379 37.1019 15.7379 37.1019 15.7378C37.1019 15.7377 37.1019 15.7375 37.1018 15.7373C37.1018 15.7369 37.1018 15.7363 37.1018 15.7355C37.1017 15.7339 37.1016 15.7314 37.1015 15.7281C37.1012 15.7216 37.1009 15.7118 37.1004 15.6989C37.0994 15.673 37.0979 15.6346 37.096 15.5845C37.0922 15.4842 37.0866 15.3369 37.0794 15.149C37.0651 14.7733 37.0447 14.2353 37.0202 13.5865C36.9712 12.2888 36.9059 10.5481 36.8405 8.77553C36.7752 7.00236 36.71 5.19999 36.6611 3.77793C36.6367 3.0664 36.6164 2.45403 36.6024 1.98968C36.5954 1.75715 36.59 1.56624 36.5864 1.42074C36.5847 1.34796 36.5834 1.29022 36.5827 1.24648C36.5818 1.19878 36.5818 1.18229 36.5818 1.18604H28.3784ZM28.9085 15.6552L28.3854 24.6002L36.5748 25.0791L37.0979 16.1341L28.9085 15.6552ZM28.3784 24.8396C28.3784 27.715 30.7093 30.0459 33.5847 30.0459V21.8425C35.2399 21.8425 36.5818 23.1844 36.5818 24.8396H28.3784ZM33.5847 30.0459C36.46 30.0459 38.7909 27.715 38.7909 24.8396H30.5875C30.5875 23.1844 31.9294 21.8425 33.5847 21.8425V30.0459ZM38.7888 24.7065L38.4967 15.7102L30.2976 15.9764L30.5897 24.9727L38.7888 24.7065ZM34.3971 15.8433C38.4472 16.4918 38.4473 16.4916 38.4473 16.4914C38.4473 16.4913 38.4474 16.4911 38.4474 16.4909C38.4475 16.4904 38.4475 16.4899 38.4476 16.4894C38.4478 16.4882 38.4481 16.4867 38.4484 16.4848C38.4489 16.4811 38.4498 16.476 38.4508 16.4696C38.4528 16.4567 38.4557 16.4385 38.4594 16.4152C38.4667 16.3686 38.4771 16.3015 38.4903 16.2159C38.5166 16.0449 38.5537 15.7996 38.5981 15.496C38.6866 14.89 38.8047 14.0465 38.923 13.0945C39.1524 11.2486 39.4097 8.78798 39.4097 6.8724H31.2063C31.2063 8.2391 31.0082 10.2639 30.7822 12.0829C30.6728 12.9634 30.5631 13.7471 30.4808 14.3103C30.4398 14.5914 30.4057 14.8162 30.3822 14.969C30.3705 15.0454 30.3614 15.1037 30.3554 15.1421C30.3524 15.1612 30.3501 15.1753 30.3487 15.1842C30.348 15.1886 30.3475 15.1918 30.3472 15.1935C30.3471 15.1944 30.347 15.195 30.347 15.1952C30.347 15.1953 30.347 15.1953 30.347 15.1953C30.347 15.1952 30.347 15.1951 30.347 15.1951C30.347 15.195 30.347 15.1948 34.3971 15.8433Z" fill="#FCC436" mask="url(#path-2-inside-1_10612_15)"/>
<path d="M5.09855 1.59465C5.09855 1.59465 5.16013 3.89105 5.16013 6.07135C5.16013 7.70661 4.66346 8.73352 3.95566 9.14481L3.9714 24.8397C3.9714 25.4497 3.47688 25.9442 2.86683 25.9442C2.25678 25.9442 1.76226 25.4497 1.76226 24.8397L2.21005 9.14807C1.49926 8.73894 1 7.71086 1 6.07135C1 3.89105 1.06158 1.59465 1.06158 1.59465" stroke="#FCC436" stroke-width="1.29858" stroke-miterlimit="10" stroke-linecap="round" stroke-linejoin="round"/>
<path d="M3.0802 1.59467V6.88825" stroke="#FCC436" stroke-width="1.29858" stroke-miterlimit="10" stroke-linecap="round" stroke-linejoin="round"/>
<path d="M18.6729 24.4409C24.7605 24.4409 29.6956 19.5058 29.6956 13.4182C29.6956 7.33057 24.7605 2.39557 18.6729 2.39557C12.5853 2.39557 7.65027 7.33057 7.65027 13.4182C7.65027 19.5058 12.5853 24.4409 18.6729 24.4409Z" stroke="#FCC436" stroke-width="2.46102" stroke-miterlimit="10" stroke-linecap="round" stroke-linejoin="round"/>
<path d="M18.6753 20.1512C22.3811 20.1512 25.3853 17.147 25.3853 13.4412C25.3853 9.73542 22.3811 6.73126 18.6753 6.73126C14.9695 6.73126 11.9653 9.73542 11.9653 13.4412C11.9653 17.147 14.9695 20.1512 18.6753 20.1512Z" fill="#FCC436"/>
</svg>
