<svg width="41" height="41" viewBox="0 0 41 41" fill="none" xmlns="http://www.w3.org/2000/svg">
<path fill-rule="evenodd" clip-rule="evenodd" d="M27.3796 15.0691C27.3796 18.9541 24.2301 22.1036 20.3451 22.1036C16.46 22.1036 13.3105 18.9541 13.3105 15.0691C13.3105 11.184 16.46 8.03455 20.3451 8.03455C24.2301 8.03455 27.3796 11.184 27.3796 15.0691Z" fill="#FCC436"/>
<path d="M20.345 0.75C9.52298 0.75 0.75 9.52298 0.75 20.345C0.75 31.167 9.52298 39.94 20.345 39.94C31.167 39.94 39.94 31.167 39.94 20.345C39.94 9.52298 31.167 0.75 20.345 0.75ZM20.4584 23.6123C15.3622 23.6123 10.8197 25.9836 7.87449 29.6821C5.92318 27.0802 4.76727 23.8479 4.76727 20.345C4.76727 11.7417 11.7417 4.76727 20.345 4.76727C28.9484 4.76727 35.9227 11.7417 35.9227 20.345C35.9227 23.7825 34.8096 26.9593 32.9241 29.5355C29.9764 25.9211 25.4869 23.6123 20.4584 23.6123Z" fill="#FCC436" stroke="#FCC436" stroke-width="0.5"/>
</svg>
